<svg xmlns="http://www.w3.org/2000/svg" viewBox="0 0 758 758">
<path fill="#0079C1" d="M338.456 561.06c90.48 61.034 232.291 82.257 364.544 9.427-81.458 137.898-245.478 213.631-409.864 175.816C89.838 699.515-37.059 496.687 9.692 293.271 54.89 96.652 245.833-28.529 442.139 5.596c0 0 76.999 13.398 116.628 81.57 14.879 24.543 26.762 53.096 34.507 85.317l.163.752c9.26 43.079 9.461 88.853-1.067 134.615-16.222 70.693-56.093 136.837-107.966 172.301l-.319.292c17.991-18.654 31.272-42.259 37.528-69.367 18.285-79.461-31.302-158.693-110.723-176.948-79.427-18.273-158.616 31.342-176.868 110.768-5.283 23.028-5.962 45.861-1.63 67.258 0 0 13.914 89.684 106.064 148.906Z"/>
<path fill="#00B1B0" d="M306 507.269c33.975 18.954 74.801 27.526 74.801 27.526 92.694 21.324 185.708-1.904 256.283-54.837l.479-.4c31.469-22.247 59.36-50.718 81.639-84.951 14.315-21.908 25.543-44.968 33.776-68.607 10.426 94.249-9.472 147.549-9.472 147.549-26.089 31.033-53.392 49.987-53.392 49.987-70.253 51.936-161.122 72.38-252.977 51.215 0 0-79.456-16.663-131.137-67.482Z"/><path fill="#00B1B0" d="M399.159 524.119c144.834 11.63 280.751-93.339 314.39-225.538 0 0 10.144-41.693 10.451-72.543 0 0-30.14-78.995-112.101-145.038 31.774 62.482 42.638 136.077 25.651 209.751C611.899 402.4 528.753 485.986 426.596 517.467c-8.64 2.66-18.211 5.03-27.596 6.481l.159.171Z"/></svg>