<svg  viewBox="0 0 266 216" xmlns="http://www.w3.org/2000/svg">
<mask id="path-1-outside-1_29_323" maskUnits="userSpaceOnUse" x="0" y="0.5" width="266" height="216" fill="black">
<rect fill="white" y="0.5" width="266" height="216"/>
<path d="M67 30L65.5 40L64.5 44.5L60.5 50.5L57 53L56 55.5L57 58L75.5 76.5V68L77 63L84.5 59H93L101.5 61.5L108 63L125.5 56V43L129.5 41L133.5 36.5V31.5L130.5 29.5L125.5 27.5L120.5 27L114.5 28.5L110.5 29L106.5 27L95 22L90 18.5L86 17L77 19.5L71.5 22L65.5 21L65 22L65.5 26L67 30Z"/>
<path d="M64 88.5L71 85.5L82 97.5V102.5H59.5V97.5L60.5 91.5L64 88.5Z"/>
<path d="M91.5 97.5L82 87.5L95.5 84.5V72.5L107.5 69.5L112 72.5L129.5 66L131.5 87.5L125 97.5L133 99.5L143.5 117.5L156.5 119L160.5 142.5L141.5 161.5H120L125 142.5L129.5 139.5L116.5 130.5L95.5 119V113L91.5 97.5Z"/>
<path d="M48.5 117.5L43.5 128H29.5L28.5 135.5L39 148.5L46 145.5L53.5 152L59.5 148.5L58.5 143.5L61.5 137.125L59.5 133.5L55 128L57 123L48.5 117.5Z"/>
<path d="M13 132L4.5 127L3 123V119L8 115L12.5 114.5L21 116L23 119L23.5 123.5L22 130.5L13 132Z"/>
<path d="M65.5 160.5L68.5 151H77.5L87 149L100 148.5L101.5 152L103 156.5V161.5L100 164L97 171L99 175.5L101.5 180.5L99 183L84.5 170H75.5L65.5 160.5Z"/>
<path d="M155 175L156 171L149.5 166.5V165L152 162.5L156 164L161.5 167.5H166L169 163.5L172 157.5L172.5 151L170.143 145L168 138.5L169 135.5L170.5 131.5V127L168 120.5L165 116.5L160.5 113L152.5 107L141.5 101L140 92L139.5 82.5L138.5 74.5L141 73L145.5 72.5V63V58.5V53L143.5 50.5L138 47.5L140 39L150.5 31.5L162.5 19.5L172.5 12.5L180 14.5L183.5 11.5L186 4.5L189.5 3.5H196.5L198 10.5L211 26L223.5 39L227 43L232 44L236 46L236.5 51.5V60.5L241 63L245 66.5L247.5 71.5L249 77.5V84L246.5 90.5L242.5 98L241 101.5L245 104.5L247.5 108.5L249 113V117.5L247.5 121.5L245.5 127L242.5 131.5L244 133.5L254.5 142.5L256 145.5L251.5 149L246.5 156.5L245.5 164L250.5 169L256 172L259.5 176.5L262 183L263 192V197.5L261 203.5L257 197L254.5 196L252 199.5L244.5 210.5L238 201.5H235L225.5 208.5L217 204.5H206L182 204L172 202.5L152.5 188L153.5 185.5H158.5L155 178.5V175Z"/>
</mask>
<path d="M67 30L65.5 40L64.5 44.5L60.5 50.5L57 53L56 55.5L57 58L75.5 76.5V68L77 63L84.5 59H93L101.5 61.5L108 63L125.5 56V43L129.5 41L133.5 36.5V31.5L130.5 29.5L125.5 27.5L120.5 27L114.5 28.5L110.5 29L106.5 27L95 22L90 18.5L86 17L77 19.5L71.5 22L65.5 21L65 22L65.5 26L67 30Z" fill="#D1A4FF"/>
<path d="M64 88.5L71 85.5L82 97.5V102.5H59.5V97.5L60.5 91.5L64 88.5Z" fill="#D1A4FF"/>
<path d="M91.5 97.5L82 87.5L95.5 84.5V72.5L107.5 69.5L112 72.5L129.5 66L131.5 87.5L125 97.5L133 99.5L143.5 117.5L156.5 119L160.5 142.5L141.5 161.5H120L125 142.5L129.5 139.5L116.5 130.5L95.5 119V113L91.5 97.5Z" fill="#D1A4FF"/>
<path d="M48.5 117.5L43.5 128H29.5L28.5 135.5L39 148.5L46 145.5L53.5 152L59.5 148.5L58.5 143.5L61.5 137.125L59.5 133.5L55 128L57 123L48.5 117.5Z" fill="#D1A4FF"/>
<path d="M13 132L4.5 127L3 123V119L8 115L12.5 114.5L21 116L23 119L23.5 123.5L22 130.5L13 132Z" fill="#D1A4FF"/>
<path d="M65.5 160.5L68.5 151H77.5L87 149L100 148.5L101.5 152L103 156.5V161.5L100 164L97 171L99 175.5L101.5 180.5L99 183L84.5 170H75.5L65.5 160.5Z" fill="#D1A4FF"/>
<path d="M155 175L156 171L149.5 166.5V165L152 162.5L156 164L161.5 167.5H166L169 163.5L172 157.5L172.5 151L170.143 145L168 138.5L169 135.5L170.5 131.5V127L168 120.5L165 116.5L160.5 113L152.5 107L141.5 101L140 92L139.5 82.5L138.5 74.5L141 73L145.5 72.5V63V58.5V53L143.5 50.5L138 47.5L140 39L150.5 31.5L162.5 19.5L172.5 12.5L180 14.5L183.5 11.5L186 4.5L189.5 3.5H196.5L198 10.5L211 26L223.5 39L227 43L232 44L236 46L236.5 51.5V60.5L241 63L245 66.5L247.5 71.5L249 77.5V84L246.5 90.5L242.5 98L241 101.5L245 104.5L247.5 108.5L249 113V117.5L247.5 121.5L245.5 127L242.5 131.5L244 133.5L254.5 142.5L256 145.5L251.5 149L246.5 156.5L245.5 164L250.5 169L256 172L259.5 176.5L262 183L263 192V197.5L261 203.5L257 197L254.5 196L252 199.5L244.5 210.5L238 201.5H235L225.5 208.5L217 204.5H206L182 204L172 202.5L152.5 188L153.5 185.5H158.5L155 178.5V175Z" fill="#D1A4FF"/>
<path d="M67 30L65.5 40L64.5 44.5L60.5 50.5L57 53L56 55.5L57 58L75.5 76.5V68L77 63L84.5 59H93L101.5 61.5L108 63L125.5 56V43L129.5 41L133.5 36.5V31.5L130.5 29.5L125.5 27.5L120.5 27L114.5 28.5L110.5 29L106.5 27L95 22L90 18.5L86 17L77 19.5L71.5 22L65.5 21L65 22L65.5 26L67 30Z" stroke="#636363" stroke-width="6" mask="url(#path-1-outside-1_29_323)"/>
<path d="M64 88.5L71 85.5L82 97.5V102.5H59.5V97.5L60.5 91.5L64 88.5Z" stroke="#636363" stroke-width="6" mask="url(#path-1-outside-1_29_323)"/>
<path d="M91.5 97.5L82 87.5L95.5 84.5V72.5L107.5 69.5L112 72.5L129.5 66L131.5 87.5L125 97.5L133 99.5L143.5 117.5L156.5 119L160.5 142.5L141.5 161.5H120L125 142.5L129.5 139.5L116.5 130.5L95.5 119V113L91.5 97.5Z" stroke="#636363" stroke-width="6" mask="url(#path-1-outside-1_29_323)"/>
<path d="M48.5 117.5L43.5 128H29.5L28.5 135.5L39 148.5L46 145.5L53.5 152L59.5 148.5L58.5 143.5L61.5 137.125L59.5 133.5L55 128L57 123L48.5 117.5Z" stroke="#636363" stroke-width="6" mask="url(#path-1-outside-1_29_323)"/>
<path d="M13 132L4.5 127L3 123V119L8 115L12.5 114.5L21 116L23 119L23.5 123.5L22 130.5L13 132Z" stroke="#636363" stroke-width="6" mask="url(#path-1-outside-1_29_323)"/>
<path d="M65.5 160.5L68.5 151H77.5L87 149L100 148.5L101.5 152L103 156.5V161.5L100 164L97 171L99 175.5L101.5 180.5L99 183L84.5 170H75.5L65.5 160.5Z" stroke="#636363" stroke-width="6" mask="url(#path-1-outside-1_29_323)"/>
<path d="M155 175L156 171L149.5 166.5V165L152 162.5L156 164L161.5 167.5H166L169 163.5L172 157.5L172.5 151L170.143 145L168 138.5L169 135.5L170.5 131.5V127L168 120.5L165 116.5L160.5 113L152.5 107L141.5 101L140 92L139.5 82.5L138.5 74.5L141 73L145.5 72.5V63V58.5V53L143.5 50.5L138 47.5L140 39L150.5 31.5L162.5 19.5L172.5 12.5L180 14.5L183.5 11.5L186 4.5L189.5 3.5H196.5L198 10.5L211 26L223.5 39L227 43L232 44L236 46L236.5 51.5V60.5L241 63L245 66.5L247.5 71.5L249 77.5V84L246.5 90.5L242.5 98L241 101.5L245 104.5L247.5 108.5L249 113V117.5L247.5 121.5L245.5 127L242.5 131.5L244 133.5L254.5 142.5L256 145.5L251.5 149L246.5 156.5L245.5 164L250.5 169L256 172L259.5 176.5L262 183L263 192V197.5L261 203.5L257 197L254.5 196L252 199.5L244.5 210.5L238 201.5H235L225.5 208.5L217 204.5H206L182 204L172 202.5L152.5 188L153.5 185.5H158.5L155 178.5V175Z" stroke="#636363" stroke-width="6" mask="url(#path-1-outside-1_29_323)"/>
</svg>
