<svg viewBox="0 0 101 79" fill="none" xmlns="http://www.w3.org/2000/svg">
<path d="M1.88788 18.5783L2.31595 17.7222L3.34767 18.9603L3.77633 19.4747L4.44549 19.499L31.9455 20.499L32.8192 20.5308L33.2775 19.7861L37.2775 13.2861L37.5 12.9246V12.5V3.5H47.5H47.6708L47.8373 3.46159L53.4137 2.17472L64.3248 15.9321L65.3706 17.2507L66.5607 16.0607L68.9853 13.636L74.6909 9.35681L80.2861 7.63521L87.705 12.272L88.3252 12.6596L89.0126 12.4097L93.9063 10.6302L99.5 13.4271V15.7281L89.7569 22.6875L78.4019 27.6244L77.5 28.0165V29V39.0458L73.7519 44.6679L73.5873 44.9149L73.5291 45.2058L71.5751 54.9762L66.6888 63.7715L66.3683 64.3484L66.577 64.9743L68.9189 72H65.5H65.3738L65.2493 72.0211L36.0225 76.9748L26.2942 75.0291L26.2404 75.0184L26.1861 75.0116L6.18667 72.5117L6.5 72.3028V71.5V64.3171L16.694 62.9874L17.5176 62.88L17.8636 62.125L23.3636 50.125L23.379 50.0914L23.3927 50.0571L27.3927 40.0571L27.8091 39.0162L26.9287 38.3221L1.88788 18.5783Z" fill="#DAFFAB" stroke="#636363" stroke-width="3"/>
</svg>
