<svg viewBox="0 0 105 106" xmlns="http://www.w3.org/2000/svg">
<path d="M75 51.5V74.3599L67.0985 76.5547L66.7944 76.6392L66.5501 76.8391L61.0501 81.3391L61.0501 81.339L61.0397 81.3477L52.0693 88.8231L48.1 91.8L47.8441 91.9919L47.6888 92.2715L45.2265 96.7036L41.9331 101.409L38.518 103.685L27.8566 96.2686L27.4704 96H27H22H11.1847L5.64011 94.6139L2.59556 92.4392L2.17428 91.8073L3.31762 88.7584L7.61357 83.5078L23.0607 68.0607L23.0767 68.0446L23.0923 68.028L31.0923 59.528L31.2432 59.3677L31.3416 59.1708L34.8416 52.1708L35 51.8541V51.5V42V41.5632L34.7655 41.1947L31.2655 35.6947L31.0612 35.3736L30.7285 35.1888L22.0081 30.3441L19.2 26.6L19.1596 26.5462L19.2879 26.0331L20.6708 25.3416L21.0271 25.1635L21.2481 24.8321L23.2481 21.8321L23.3245 21.7175L23.3787 21.5909L24.8787 18.0909L25 17.8079V17.5V12.5V12.2566L24.923 12.0257L23.7649 8.55132L26.849 6.23823L30.795 3.772L30.8342 3.74748L30.8719 3.7206L33.8431 1.59832L38.1143 2.45256L45.3351 4.8595L52.6679 9.74808L52.7825 9.82447L52.9091 9.87872L59.9091 12.8787L60.1089 12.9643L60.3247 12.9897L68.8247 13.9897L69.0117 14.0117L69.1982 13.9868L76.6982 12.9868L77.0607 12.9385L77.3602 12.7288L82.3602 9.22885L82.4353 9.17627L82.5034 9.11494L87.4226 4.68771L87.8089 4.43019L89.4393 6.06066L89.8114 6.43272L90.3344 6.49083L98 7.34256V14.5V15.0431L98.3477 15.4603L100.848 18.4603L100.891 18.5125L100.939 18.5607L103 20.6213V21.719L99.0272 24.5H93H91.5V26V48.5547L81.6428 53.269L77.3602 50.2712L75 48.619V51.5Z" fill="#FFC773" stroke="#636363" stroke-width="3"/>
</svg>
