<svg viewBox="0 0 59 58" fill="none" xmlns="http://www.w3.org/2000/svg">
<path d="M22.684 11.9209L22.9286 11.6065L22.9849 11.2121L24.3009 2H27.6705L33.8295 4.84258L40.2722 8.31175L47.2218 12.2829L53.9822 16.6289L57.5 21.0262V25V29.9451L54.8611 33.0238L54.6478 33.2727L54.5577 33.5879L53.5577 37.0879L53.44 37.5L53.5577 37.9121L54.5577 41.4121L54.5743 41.4701L54.5955 41.5267L56 45.272V47.5193L53.9704 50.3607L47.6759 53.9576L38.8825 53.032L32.0909 50.1213L31.8079 50H31.5H26.5H26.3687L26.2393 50.0228L17.7635 51.5186L7.28787 53.0151L7.10986 53.0405L6.94291 53.1073L1.5 55.2845V45.2009L4.41344 34.5182L7.7834 27.2969L13.5156 20.1317L18.8053 16.7655L19.0245 16.626L19.184 16.4209L22.684 11.9209Z" fill="#BCF7FF" stroke="#636363" stroke-width="3"/>
</svg>
