<svg viewBox="0 0 78 64" fill="none" xmlns="http://www.w3.org/2000/svg">
<path d="M9.73167 2.4758L9.86475 2.5H10H18.8096L34.1252 6.45242L34.3096 6.5H34.5H47.5H47.6165L47.7316 6.48202L63.7128 3.98495L73.5 2.70836V6.11095L61.885 7.00442L61.3317 7.04698L60.9393 7.43934L58.9393 9.43934L58.8437 9.53498L58.7667 9.64618L54.2667 16.1462L54 16.5314V17V24.5V24.8L54.1154 25.0769L56.6154 31.0769L56.83 31.5921L57.3292 31.8416L58.253 32.3035L58.2358 32.3721L54.9733 33.5955L54.772 33.671L54.6 33.8L52.6 35.3L51.3192 36.2606L52.3611 37.4762L55.3611 40.9762L55.4798 41.1146L55.6281 41.2206L59.1281 43.7206L59.5193 44H60H65.4738L69.9328 47.5672L73.8287 52.437L73.9742 52.6189L74.168 52.7481L76.361 54.2101L76.1066 55.736L71.7027 59.6995L65.7215 62H60.276L50.1518 58.1432L41.7605 53.2071L41.6484 53.1412L41.5267 53.0955L33.5267 50.0955L33.3437 50.0269L33.1493 50.0074L28.1493 49.5074L27.7392 49.4664L27.3657 49.6407L19.8657 53.1407L19.7162 53.2105L19.5854 53.3111L13.5 57.9922V52.1213L15.0607 50.5607L15.0859 50.5354L15.1099 50.509L20.1099 45.009L20.1246 44.9928L20.1389 44.9762L23.1389 41.4762L23.922 40.5626L23.2 39.6L20.2 35.6L20.1598 35.5464L20.1149 35.4966L11.2249 25.6188L4.83458 14.3128L1.5 7.16723V1.5H4.36475L9.73167 2.4758Z" fill="#D9D9D9" stroke="#636363" stroke-width="3"/>
</svg>
