<svg viewBox="0 0 144 183" fill="none" xmlns="http://www.w3.org/2000/svg">
<mask id="path-1-inside-1_29_318" fill="white">
<path d="M79.5 166.5L71.5 158L72.5 149V146L70.5 144.5L68.5 145L63.5 148L60 150.5H55.5L49 148L45.5 145L44.5 143L46 139V134.5L44 131L51 126L55 132.5L56 133.5L61 134.5L63.5 132.5L66 129.5L68.5 126H85.5V119.5L89 117.5L91.5 115V112L89.5 108L85.5 106.5H80.5L75.5 108L73.5 110.5V116L71.5 118L61 114.5H31L29.5 113L26 109.5L20 108C17.5 108.333 12.4 109.1 12 109.5C11.6 109.9 9.5 110.333 8.5 110.5L7.5 113.5V117L12 122.5L13.5 124V125.5H8.5L3 122.5L0 118V113.5V107V104L2 99.5L4 97H6.5L10.5 96L13.5 93L15.5 87V78.5L14.5 75.5L10.5 73.5L9 70L6.5 64.5L4 59.5L9 51.5H28L39 40.5H48L57.5 31.5L68 21L71.5 17.5L68 15L72.5 12.5L77 11.5L81 10.5V4L82.5 1L83.5 0L85.5 2L88 4L94 5.5L98 6.5L100.5 12.5L108 19L119.5 26.5L126 30.5L131.5 32.5L127.5 35.5V39L139 42L143.5 48V51.5L141.5 61.5L140.5 65.5H131.5L123.5 64H116.5L115 62L111 57.5L105 67L106 70L131.5 91L128.5 99L124.5 106.5L117.5 109L110 109.5L111.5 115V118.5L103.5 123.5L97.5 125L96 126L97.5 127L101 127.5V132.5L101.5 137L103.5 143L108 151L115 159.5L120 165L121.5 166.5V167.5L119 170L115 174L112 178.5V182.5L108.5 179.5L98.5 174L91.5 170.5L87 168.5H83L79.5 166.5Z"/>
</mask>
<path d="M79.5 166.5L71.5 158L72.5 149V146L70.5 144.5L68.5 145L63.5 148L60 150.5H55.5L49 148L45.5 145L44.5 143L46 139V134.5L44 131L51 126L55 132.5L56 133.5L61 134.5L63.5 132.5L66 129.5L68.5 126H85.5V119.5L89 117.5L91.5 115V112L89.5 108L85.5 106.5H80.5L75.5 108L73.5 110.5V116L71.5 118L61 114.5H31L29.5 113L26 109.5L20 108C17.5 108.333 12.4 109.1 12 109.5C11.6 109.9 9.5 110.333 8.5 110.5L7.5 113.5V117L12 122.5L13.5 124V125.5H8.5L3 122.5L0 118V113.5V107V104L2 99.5L4 97H6.5L10.5 96L13.5 93L15.5 87V78.5L14.5 75.5L10.5 73.5L9 70L6.5 64.5L4 59.5L9 51.5H28L39 40.5H48L57.5 31.5L68 21L71.5 17.5L68 15L72.5 12.5L77 11.5L81 10.5V4L82.5 1L83.5 0L85.5 2L88 4L94 5.5L98 6.5L100.5 12.5L108 19L119.5 26.5L126 30.5L131.5 32.5L127.5 35.5V39L139 42L143.5 48V51.5L141.5 61.5L140.5 65.5H131.5L123.5 64H116.5L115 62L111 57.5L105 67L106 70L131.5 91L128.5 99L124.5 106.5L117.5 109L110 109.5L111.5 115V118.5L103.5 123.5L97.5 125L96 126L97.5 127L101 127.5V132.5L101.5 137L103.5 143L108 151L115 159.5L120 165L121.5 166.5V167.5L119 170L115 174L112 178.5V182.5L108.5 179.5L98.5 174L91.5 170.5L87 168.5H83L79.5 166.5Z" fill="#FFFA8A" stroke="#636363" stroke-width="6" mask="url(#path-1-inside-1_29_318)"/>
</svg>
