<svg viewBox="0 0 72 55" fill="none" xmlns="http://www.w3.org/2000/svg">
<path d="M38.7519 50.6679L37.7669 52.1455L37.5607 51.9393L37.4903 51.8689L37.4112 51.8085L28.9146 45.3111L28.9112 45.3085L22.4146 40.3111L22.4032 40.3023L22.3916 40.2937L10.9146 31.8108L3.85702 26.1647L2 17.3438V15.5155L3.42922 14.9439L8.29417 13.9709L8.3016 13.9694L8.30902 13.9678L17.809 11.9678L17.8232 11.9648L17.8373 11.9616L24.2523 10.4812L28.5831 10H30.1817L34.3596 11.8569L37.3292 13.3416L37.6459 13.5H38H45H51.5H51.8249L52.1207 13.3656L57.6207 10.8656L57.6985 10.8302L57.7717 10.7862L60.2717 9.28624L60.561 9.1127L60.7481 8.83205L62.7481 5.83205L62.8347 5.7021L62.8927 5.55709L63.8927 3.05709L63.9091 3.01616L63.923 2.97434L64.2265 2.06378L64.3541 2H65.0458L67.4392 3.59556L69.602 6.62344L70.4295 10.3474L67.2112 17.7035L59.8912 26.4874L51.4393 34.9393L51.4163 34.9624L51.3943 34.9864L45.8943 40.9864L45.8443 41.0409L45.8 41.1L41.3 47.1L41.2895 47.114L41.2794 47.1281L38.7794 50.6281L38.7653 50.6478L38.7519 50.6679Z" fill="#78EA8A" stroke="#636363" stroke-width="3"/>
</svg>
