<svg  viewBox="0 0 363 166" fill="none" xmlns="http://www.w3.org/2000/svg">
<mask id="path-1-outside-1_29_322" maskUnits="userSpaceOnUse" x="0.5" y="0.5" width="362" height="165" fill="black">
<rect fill="white" x="0.5" y="0.5" width="362" height="165"/>
<path d="M14 23L5 15H4.5L5 12.5L6 9L7.5 6.5H10L13 7.5L16.5 10.5L19 12.5H21.5L24 10.5L27.5 7.5L31 5L34.5 3.5H42.5L47 4L52 6L56.5 8.5L59.5 12.5L58 16L55.5 19.5L53 19H50.5H44.5H40L36.5 23L40 30.5V35L36.5 38.5H28.5L19.5 35L14 30.5V23Z"/>
<path d="M60.5 52.5L62 47L66 50.5L71 55L69 56.5L65 60L64.5 62L66 65.5L69.5 70L66 73L63 74L60 72L56.5 70L55 71L54 75.5L52.5 78.5L50.5 76.5L47 71L46 66L47 60L49.5 54.5L51 54L54 56.5L56.5 58L58 57L60.5 52.5Z"/>
<path d="M82.5 100H67L68.5 98.5L71 97L73 95.5H75L78.5 96H82L83.5 95L85 94.5L87 93L89 92.5L90 93L92 94.5V97C91.3333 97.8333 90 99.6 90 100C90 100.4 88 101.167 87 101.5H84L82.5 100Z"/>
<path d="M159.5 130.5L157 126.5L158 125.5H159.5L161 127.5L163 128L165.5 127L168 125.5L170 124.5L173.5 125.5H175.5L177.5 124.5L180 124L183.5 126.5V129L184.5 131.5L179.5 134L175.5 137L175 141.5L173.5 142.5L171 141.5L166 140H161.5V135L159.5 130.5Z"/>
<path d="M183.5 152.5L181.5 151L183.5 149.5L186 146.5L188 144.5L190 143.5L191 144.5L190 145.5V147.5L191 151L189.5 152.5L187 153.5L183.5 152.5Z"/>
<path d="M195 161V162.5H196.5L198 162H200L201.5 161L200.5 159L200 160L198 161H195Z"/>
<path d="M229 149.5L227.5 151H231H233.5H236.5L237.5 148.5L236.5 146.5H234.5L232.5 148.5L229 149.5Z"/>
<path d="M307 136.5C306 138.167 303.9 141.5 303.5 141.5L306 143.5H309L311.5 146L314.5 147L316.5 145C317.667 143.5 320 140.4 320 140C320 139.6 321.333 138.5 322 138L321 135.5L317 131L314.5 133.5L311 135L307 136.5Z"/>
<path d="M338 139.5L334 132L333.5 131.5H335L337 131L337.5 130H339L341.5 133.5L343.5 137H347.5L352 137.5L352.5 141L354 144.5L354.5 149H350L349 153L346 152.5L342 153.5L340 155L337 158.5L336.5 157C335.667 156.167 333.9 154.5 333.5 154.5C333.1 154.5 331.333 151.833 330.5 150.5L332 149L334.5 146L336.5 143L338 141.5V139.5Z"/>
<path d="M357 153L356 155H355.5L356 156H357L358 155L359.5 154.5V152.5H358L357 153Z"/>
</mask>
<path d="M14 23L5 15H4.5L5 12.5L6 9L7.5 6.5H10L13 7.5L16.5 10.5L19 12.5H21.5L24 10.5L27.5 7.5L31 5L34.5 3.5H42.5L47 4L52 6L56.5 8.5L59.5 12.5L58 16L55.5 19.5L53 19H50.5H44.5H40L36.5 23L40 30.5V35L36.5 38.5H28.5L19.5 35L14 30.5V23Z" fill="#FFC2C2"/>
<path d="M60.5 52.5L62 47L66 50.5L71 55L69 56.5L65 60L64.5 62L66 65.5L69.5 70L66 73L63 74L60 72L56.5 70L55 71L54 75.5L52.5 78.5L50.5 76.5L47 71L46 66L47 60L49.5 54.5L51 54L54 56.5L56.5 58L58 57L60.5 52.5Z" fill="#FFC2C2"/>
<path d="M82.5 100H67L68.5 98.5L71 97L73 95.5H75L78.5 96H82L83.5 95L85 94.5L87 93L89 92.5L90 93L92 94.5V97C91.3333 97.8333 90 99.6 90 100C90 100.4 88 101.167 87 101.5H84L82.5 100Z" fill="#FFC2C2"/>
<path d="M159.5 130.5L157 126.5L158 125.5H159.5L161 127.5L163 128L165.5 127L168 125.5L170 124.5L173.5 125.5H175.5L177.5 124.5L180 124L183.5 126.5V129L184.5 131.5L179.5 134L175.5 137L175 141.5L173.5 142.5L171 141.5L166 140H161.5V135L159.5 130.5Z" fill="#FFC2C2"/>
<path d="M183.5 152.5L181.5 151L183.5 149.5L186 146.5L188 144.5L190 143.5L191 144.5L190 145.5V147.5L191 151L189.5 152.5L187 153.5L183.5 152.5Z" fill="#FFC2C2"/>
<path d="M195 161V162.5H196.5L198 162H200L201.5 161L200.5 159L200 160L198 161H195Z" fill="#FFC2C2"/>
<path d="M229 149.5L227.5 151H231H233.5H236.5L237.5 148.5L236.5 146.5H234.5L232.5 148.5L229 149.5Z" fill="#FFC2C2"/>
<path d="M307 136.5C306 138.167 303.9 141.5 303.5 141.5L306 143.5H309L311.5 146L314.5 147L316.5 145C317.667 143.5 320 140.4 320 140C320 139.6 321.333 138.5 322 138L321 135.5L317 131L314.5 133.5L311 135L307 136.5Z" fill="#FFC2C2"/>
<path d="M338 139.5L334 132L333.5 131.5H335L337 131L337.5 130H339L341.5 133.5L343.5 137H347.5L352 137.5L352.5 141L354 144.5L354.5 149H350L349 153L346 152.5L342 153.5L340 155L337 158.5L336.5 157C335.667 156.167 333.9 154.5 333.5 154.5C333.1 154.5 331.333 151.833 330.5 150.5L332 149L334.5 146L336.5 143L338 141.5V139.5Z" fill="#FFC2C2"/>
<path d="M357 153L356 155H355.5L356 156H357L358 155L359.5 154.5V152.5H358L357 153Z" fill="#FFC2C2"/>
<path d="M14 23L5 15H4.5L5 12.5L6 9L7.5 6.5H10L13 7.5L16.5 10.5L19 12.5H21.5L24 10.5L27.5 7.5L31 5L34.5 3.5H42.5L47 4L52 6L56.5 8.5L59.5 12.5L58 16L55.5 19.5L53 19H50.5H44.5H40L36.5 23L40 30.5V35L36.5 38.5H28.5L19.5 35L14 30.5V23Z" stroke="#636363" stroke-width="6" mask="url(#path-1-outside-1_29_322)"/>
<path d="M60.5 52.5L62 47L66 50.5L71 55L69 56.5L65 60L64.5 62L66 65.5L69.5 70L66 73L63 74L60 72L56.5 70L55 71L54 75.5L52.5 78.5L50.5 76.5L47 71L46 66L47 60L49.5 54.5L51 54L54 56.5L56.5 58L58 57L60.5 52.5Z" stroke="#636363" stroke-width="6" mask="url(#path-1-outside-1_29_322)"/>
<path d="M82.5 100H67L68.5 98.5L71 97L73 95.5H75L78.5 96H82L83.5 95L85 94.5L87 93L89 92.5L90 93L92 94.5V97C91.3333 97.8333 90 99.6 90 100C90 100.4 88 101.167 87 101.5H84L82.5 100Z" stroke="#636363" stroke-width="6" mask="url(#path-1-outside-1_29_322)"/>
<path d="M159.5 130.5L157 126.5L158 125.5H159.5L161 127.5L163 128L165.5 127L168 125.5L170 124.5L173.5 125.5H175.5L177.5 124.5L180 124L183.5 126.5V129L184.5 131.5L179.5 134L175.5 137L175 141.5L173.5 142.5L171 141.5L166 140H161.5V135L159.5 130.5Z" stroke="#636363" stroke-width="6" mask="url(#path-1-outside-1_29_322)"/>
<path d="M183.5 152.5L181.5 151L183.5 149.5L186 146.5L188 144.5L190 143.5L191 144.5L190 145.5V147.5L191 151L189.5 152.5L187 153.5L183.5 152.5Z" stroke="#636363" stroke-width="6" mask="url(#path-1-outside-1_29_322)"/>
<path d="M195 161V162.5H196.5L198 162H200L201.5 161L200.5 159L200 160L198 161H195Z" stroke="#636363" stroke-width="6" mask="url(#path-1-outside-1_29_322)"/>
<path d="M229 149.5L227.5 151H231H233.5H236.5L237.5 148.5L236.5 146.5H234.5L232.5 148.5L229 149.5Z" stroke="#636363" stroke-width="6" mask="url(#path-1-outside-1_29_322)"/>
<path d="M307 136.5C306 138.167 303.9 141.5 303.5 141.5L306 143.5H309L311.5 146L314.5 147L316.5 145C317.667 143.5 320 140.4 320 140C320 139.6 321.333 138.5 322 138L321 135.5L317 131L314.5 133.5L311 135L307 136.5Z" stroke="#636363" stroke-width="6" mask="url(#path-1-outside-1_29_322)"/>
<path d="M338 139.5L334 132L333.5 131.5H335L337 131L337.5 130H339L341.5 133.5L343.5 137H347.5L352 137.5L352.5 141L354 144.5L354.5 149H350L349 153L346 152.5L342 153.5L340 155L337 158.5L336.5 157C335.667 156.167 333.9 154.5 333.5 154.5C333.1 154.5 331.333 151.833 330.5 150.5L332 149L334.5 146L336.5 143L338 141.5V139.5Z" stroke="#636363" stroke-width="6" mask="url(#path-1-outside-1_29_322)"/>
<path d="M357 153L356 155H355.5L356 156H357L358 155L359.5 154.5V152.5H358L357 153Z" stroke="#636363" stroke-width="6" mask="url(#path-1-outside-1_29_322)"/>
</svg>
