<svg viewBox="0 0 244 156" fill="none" xmlns="http://www.w3.org/2000/svg">
<path d="M18.5 16L1.5 6.5L6.5 7H9H12L15.5 9L18.5 10.5H21L22.5 9L24 6.5L25.5 3.5L26.5 4.5L28 6.5L29 7L28.5 8L28 10.5V14L28.5 17L31 19L36 21H40.5L44 21.5V23.5L43 26.5H41C40 26 37.9 24.9 37.5 24.5C37.1 24.1 35 24.3333 34 24.5H31L25.5 27L21 30.5L19.5 31.5L17.5 30.5H16.5C16.8333 29.6667 17.5 27.8 17.5 27C17.5 26.2 18.1667 23 18.5 21.5V16Z" fill="#B7DC7A"/>
<path d="M54 11L52 16L54 18L56.5 19.5L58 21H60L61 20L62 18L62.5 15L66 10.5L69.5 6.5H61H57L54 11Z" fill="#B7DC7A"/>
<path d="M78 12L81.5 7H82.5L84.5 9L87.5 10.5L89 12V15L88 19V22.5L86 25.5L84 27L82.5 28L79.5 27L76 26.5H72L65.5 25.5L67 24.5L69.5 22.5L71 19.5L72 16L73.5 14L76 13.5L78 12Z" fill="#B7DC7A"/>
<path d="M102 25.5L102.5 31.5L88.5 42.5L86 43.5L81 42.5H73H61.5H56L47 45L40 48L32.5 52.5L27.5 57L23 62L21.5 63L19.5 62H16H11.5L9.5 62.5L8.5 64.5V69L9.5 70L11.5 71L14.5 73.5L17.5 76L19.5 78.5L18 81.5L14.5 85.5H18L23 85L27.5 84L31 83.5L34.5 82.5L36.5 84L37.5 91L38 88.5L39 86.5L41.5 85H44L47 88.5L49 93V97L50 101L55 102H58L61.5 101L77.5 91.5L90 84L93 81L96 75.5L100 69L107 66.5L115.5 62.5L121.5 60.5L129.5 58.5L136 57.5L143 55L143.5 53L146.5 51.5L151 49.5L151.5 48L150 43L146.5 38L143.5 34.5L142.5 32.5V31H144.5H148.5H153H156.5L158 30L159 28L159.5 26V23.5H158H156.5L154 22.5L153 21.5L154 18.5L150 20.5L146.5 23.5L138.5 28L133.5 29L129.5 30L127.5 29L124.5 25.5L121.5 23.5H117.5L116 22.5V19.5L114 17L111.5 15L109 17L107 19H104.5H101V20L102 25.5Z" fill="#B7DC7A"/>
<path d="M41.5 106.5L39.5 109.5L40 110L42.5 110.5L44.5 111.5L46.5 112.5L47 114L46.5 115.5L45.5 117.5V122.5L46.5 124L50 126L54 127.5L55 124.5V122H57H60L61.5 121V119L62.5 118L60 117L57.5 115.5L55 114L54 111.5L53 109.5L50.5 108.5L47 106.5L45 105L43 102V103L41.5 106.5Z" fill="#B7DC7A"/>
<path d="M199.5 105L209 97V98.5L214 102L219 106.5L226 110L236 112.5L241.5 114L238.5 119L233.5 124.5L230 134.5L226 146L222.5 153.5L219 151.5L209 146L199.5 142L193.5 139L195.5 131.5V122L197 111.5L199.5 105Z" fill="#B7DC7A"/>
<path d="M18.5 16L1.5 6.5L6.5 7H9H12L15.5 9L18.5 10.5H21L22.5 9L24 6.5L25.5 3.5L26.5 4.5L28 6.5L29 7L28.5 8L28 10.5V14L28.5 17L31 19L36 21H40.5L44 21.5V23.5L43 26.5H41C40 26 37.9 24.9 37.5 24.5C37.1 24.1 35 24.3333 34 24.5H31L25.5 27L21 30.5L19.5 31.5L17.5 30.5H16.5C16.8333 29.6667 17.5 27.8 17.5 27C17.5 26.2 18.1667 23 18.5 21.5V16Z" stroke="#636363" stroke-width="3"/>
<path d="M54 11L52 16L54 18L56.5 19.5L58 21H60L61 20L62 18L62.5 15L66 10.5L69.5 6.5H61H57L54 11Z" stroke="#636363" stroke-width="3"/>
<path d="M78 12L81.5 7H82.5L84.5 9L87.5 10.5L89 12V15L88 19V22.5L86 25.5L84 27L82.5 28L79.5 27L76 26.5H72L65.5 25.5L67 24.5L69.5 22.5L71 19.5L72 16L73.5 14L76 13.5L78 12Z" stroke="#636363" stroke-width="3"/>
<path d="M102 25.5L102.5 31.5L88.5 42.5L86 43.5L81 42.5H73H61.5H56L47 45L40 48L32.5 52.5L27.5 57L23 62L21.5 63L19.5 62H16H11.5L9.5 62.5L8.5 64.5V69L9.5 70L11.5 71L14.5 73.5L17.5 76L19.5 78.5L18 81.5L14.5 85.5H18L23 85L27.5 84L31 83.5L34.5 82.5L36.5 84L37.5 91L38 88.5L39 86.5L41.5 85H44L47 88.5L49 93V97L50 101L55 102H58L61.5 101L77.5 91.5L90 84L93 81L96 75.5L100 69L107 66.5L115.5 62.5L121.5 60.5L129.5 58.5L136 57.5L143 55L143.5 53L146.5 51.5L151 49.5L151.5 48L150 43L146.5 38L143.5 34.5L142.5 32.5V31H144.5H148.5H153H156.5L158 30L159 28L159.5 26V23.5H158H156.5L154 22.5L153 21.5L154 18.5L150 20.5L146.5 23.5L138.5 28L133.5 29L129.5 30L127.5 29L124.5 25.5L121.5 23.5H117.5L116 22.5V19.5L114 17L111.5 15L109 17L107 19H104.5H101V20L102 25.5Z" stroke="#636363" stroke-width="3"/>
<path d="M41.5 106.5L39.5 109.5L40 110L42.5 110.5L44.5 111.5L46.5 112.5L47 114L46.5 115.5L45.5 117.5V122.5L46.5 124L50 126L54 127.5L55 124.5V122H57H60L61.5 121V119L62.5 118L60 117L57.5 115.5L55 114L54 111.5L53 109.5L50.5 108.5L47 106.5L45 105L43 102V103L41.5 106.5Z" stroke="#636363" stroke-width="3"/>
<path d="M199.5 105L209 97V98.5L214 102L219 106.5L226 110L236 112.5L241.5 114L238.5 119L233.5 124.5L230 134.5L226 146L222.5 153.5L219 151.5L209 146L199.5 142L193.5 139L195.5 131.5V122L197 111.5L199.5 105Z" stroke="#636363" stroke-width="3"/>
</svg>
